# Tiled2Unity generated file. Do not modify by hand.
# Wavefront file for 'NewMansion_mesh_0041.obj'

# Vertices (Count = 148)
v 0 -4 0
v -1 -4 0
v -1 -3 0
v 0 -3 0
v -1 -4 0
v -2 -4 0
v -2 -3 0
v -1 -3 0
v -2 -4 0
v -3 -4 0
v -3 -3 0
v -2 -3 0
v -3 -4 0
v -4 -4 0
v -4 -3 0
v -3 -3 0
v -4 -4 0
v -5 -4 0
v -5 -3 0
v -4 -3 0
v -5 -4 0
v -6 -4 0
v -6 -3 0
v -5 -3 0
v -6 -4 0
v -7 -4 0
v -7 -3 0
v -6 -3 0
v -7 -4 0
v -8 -4 0
v -8 -3 0
v -7 -3 0
v -8 -4 0
v -9 -4 0
v -9 -3 0
v -8 -3 0
v -9 -4 0
v -10 -4 0
v -10 -3 0
v -9 -3 0
v -10 -4 0
v -11 -4 0
v -11 -3 0
v -10 -3 0
v -11 -4 0
v -12 -4 0
v -12 -3 0
v -11 -3 0
v -12 -4 0
v -13 -4 0
v -13 -3 0
v -12 -3 0
v -14 -4 0
v -15 -4 0
v -15 -3 0
v -14 -3 0
v -15 -4 0
v -16 -4 0
v -16 -3 0
v -15 -3 0
v 0 -12 0
v -1 -12 0
v -1 -11 0
v 0 -11 0
v -1 -12 0
v -2 -12 0
v -2 -11 0
v -1 -11 0
v -2 -12 0
v -3 -12 0
v -3 -11 0
v -2 -11 0
v -3 -12 0
v -4 -12 0
v -4 -11 0
v -3 -11 0
v -4 -12 0
v -5 -12 0
v -5 -11 0
v -4 -11 0
v -5 -12 0
v -6 -12 0
v -6 -11 0
v -5 -11 0
v -6 -12 0
v -7 -12 0
v -7 -11 0
v -6 -11 0
v -7 -12 0
v -8 -12 0
v -8 -11 0
v -7 -11 0
v -8 -12 0
v -9 -12 0
v -9 -11 0
v -8 -11 0
v -9 -12 0
v -10 -12 0
v -10 -11 0
v -9 -11 0
v -10 -12 0
v -11 -12 0
v -11 -11 0
v -10 -11 0
v -12 -12 0
v -13 -12 0
v -13 -11 0
v -12 -11 0
v -13 -12 0
v -14 -12 0
v -14 -11 0
v -13 -11 0
v -3 -16 0
v -4 -16 0
v -4 -15 0
v -3 -15 0
v -5 -16 0
v -6 -16 0
v -6 -15 0
v -5 -15 0
v -6 -16 0
v -7 -16 0
v -7 -15 0
v -6 -15 0
v -7 -16 0
v -8 -16 0
v -8 -15 0
v -7 -15 0
v -8 -16 0
v -9 -16 0
v -9 -15 0
v -8 -15 0
v -9 -16 0
v -10 -16 0
v -10 -15 0
v -9 -15 0
v -10 -16 0
v -11 -16 0
v -11 -15 0
v -10 -15 0
v -11 -16 0
v -12 -16 0
v -12 -15 0
v -11 -15 0
v -12 -16 0
v -13 -16 0
v -13 -15 0
v -12 -15 0

# Texture cooridinates (Count = 6)
vt 0 0.01030928
vt 1 0.01030928
vt 1 0.3402062
vt 0 0.3402062
vt 1 0.6701031
vt 0 0.6701031

# Normal
vn 0 0 -1

# Mesh description
g NewMansion_mesh_0041

# Faces
f 1/1/1 2/2/1 3/3/1 4/4/1
f 5/1/1 6/2/1 7/3/1 8/4/1
f 9/1/1 10/2/1 11/3/1 12/4/1
f 13/1/1 14/2/1 15/3/1 16/4/1
f 17/1/1 18/2/1 19/3/1 20/4/1
f 21/1/1 22/2/1 23/3/1 24/4/1
f 25/1/1 26/2/1 27/3/1 28/4/1
f 29/1/1 30/2/1 31/3/1 32/4/1
f 33/1/1 34/2/1 35/3/1 36/4/1
f 37/1/1 38/2/1 39/3/1 40/4/1
f 41/1/1 42/2/1 43/3/1 44/4/1
f 45/1/1 46/2/1 47/3/1 48/4/1
f 49/1/1 50/2/1 51/3/1 52/4/1
f 53/1/1 54/2/1 55/3/1 56/4/1
f 57/1/1 58/2/1 59/3/1 60/4/1
f 61/4/1 62/3/1 63/5/1 64/6/1
f 65/3/1 66/4/1 67/6/1 68/5/1
f 69/3/1 70/4/1 71/6/1 72/5/1
f 73/4/1 74/3/1 75/5/1 76/6/1
f 77/4/1 78/3/1 79/5/1 80/6/1
f 81/4/1 82/3/1 83/5/1 84/6/1
f 85/4/1 86/3/1 87/5/1 88/6/1
f 89/4/1 90/3/1 91/5/1 92/6/1
f 93/4/1 94/3/1 95/5/1 96/6/1
f 97/4/1 98/3/1 99/5/1 100/6/1
f 101/4/1 102/3/1 103/5/1 104/6/1
f 105/4/1 106/3/1 107/5/1 108/6/1
f 109/3/1 110/4/1 111/6/1 112/5/1
f 113/3/1 114/4/1 115/6/1 116/5/1
f 117/3/1 118/4/1 119/6/1 120/5/1
f 121/3/1 122/4/1 123/6/1 124/5/1
f 125/3/1 126/4/1 127/6/1 128/5/1
f 129/3/1 130/4/1 131/6/1 132/5/1
f 133/3/1 134/4/1 135/6/1 136/5/1
f 137/3/1 138/4/1 139/6/1 140/5/1
f 141/3/1 142/4/1 143/6/1 144/5/1
f 145/3/1 146/4/1 147/6/1 148/5/1

