# Tiled2Unity generated file. Do not modify by hand.
# Wavefront file for 'NewMansion_mesh_0129.obj'

# Vertices (Count = 60)
v -1 -1 0
v -2 -1 0
v -2 0 0
v -1 0 0
v -3 -1 0
v -4 -1 0
v -4 0 0
v -3 0 0
v -4 -1 0
v -5 -1 0
v -5 0 0
v -4 0 0
v -6 -1 0
v -7 -1 0
v -7 0 0
v -6 0 0
v -7 -1 0
v -8 -1 0
v -8 0 0
v -7 0 0
v -8 -1 0
v -9 -1 0
v -9 0 0
v -8 0 0
v -1 -2 0
v -2 -2 0
v -2 -1 0
v -1 -1 0
v -3 -2 0
v -4 -2 0
v -4 -1 0
v -3 -1 0
v -4 -2 0
v -5 -2 0
v -5 -1 0
v -4 -1 0
v -6 -2 0
v -7 -2 0
v -7 -1 0
v -6 -1 0
v -7 -2 0
v -8 -2 0
v -8 -1 0
v -7 -1 0
v -8 -2 0
v -9 -2 0
v -9 -1 0
v -8 -1 0
v -3 -3 0
v -4 -3 0
v -4 -2 0
v -3 -2 0
v -4 -3 0
v -5 -3 0
v -5 -2 0
v -4 -2 0
v -8 -7 0
v -9 -7 0
v -9 -6 0
v -8 -6 0

# Texture cooridinates (Count = 36)
vt 0.46875 0.8125
vt 0.5 0.8125
vt 0.5 0.84375
vt 0.46875 0.84375
vt 0.3125 0.0625
vt 0.34375 0.0625
vt 0.34375 0.09375
vt 0.3125 0.09375
vt 0.375 0.0625
vt 0.375 0.09375
vt 0.59375 0.71875
vt 0.625 0.71875
vt 0.625 0.75
vt 0.59375 0.75
vt 0.5 0.71875
vt 0.53125 0.71875
vt 0.53125 0.75
vt 0.5 0.75
vt 0.40625 0.5625
vt 0.4375 0.5625
vt 0.4375 0.59375
vt 0.40625 0.59375
vt 0.3125 0.03125
vt 0.34375 0.03125
vt 0.375 0.03125
vt 0.59375 0.6875
vt 0.625 0.6875
vt 0.5 0.6875
vt 0.53125 0.6875
vt 0.3125 0
vt 0.34375 0
vt 0.375 0
vt 0.65625 0.03125
vt 0.6875 0.03125
vt 0.6875 0.0625
vt 0.65625 0.0625

# Normal
vn 0 0 -1

# Mesh description
g NewMansion_mesh_0129

# Faces
f 1/1/1 2/2/1 3/3/1 4/4/1
f 5/5/1 6/6/1 7/7/1 8/8/1
f 9/6/1 10/9/1 11/10/1 12/7/1
f 13/11/1 14/12/1 15/13/1 16/14/1
f 17/15/1 18/16/1 19/17/1 20/18/1
f 21/11/1 22/12/1 23/13/1 24/14/1
f 25/19/1 26/20/1 27/21/1 28/22/1
f 29/23/1 30/24/1 31/6/1 32/5/1
f 33/24/1 34/25/1 35/9/1 36/6/1
f 37/26/1 38/27/1 39/12/1 40/11/1
f 41/28/1 42/29/1 43/16/1 44/15/1
f 45/26/1 46/27/1 47/12/1 48/11/1
f 49/30/1 50/31/1 51/24/1 52/23/1
f 53/31/1 54/32/1 55/25/1 56/24/1
f 57/33/1 58/34/1 59/35/1 60/36/1

