# Tiled2Unity generated file. Do not modify by hand.
# Wavefront file for 'NewMansion_mesh_0125.obj'

# Vertices (Count = 24)
v -4 -14 0
v -5 -14 0
v -5 -13 0
v -4 -13 0
v -11 -14 0
v -12 -14 0
v -12 -13 0
v -11 -13 0
v -4 -15 0
v -5 -15 0
v -5 -14 0
v -4 -14 0
v -11 -15 0
v -12 -15 0
v -12 -14 0
v -11 -14 0
v -4 -16 0
v -5 -16 0
v -5 -15 0
v -4 -15 0
v -11 -16 0
v -12 -16 0
v -12 -15 0
v -11 -15 0

# Texture cooridinates (Count = 8)
vt 0.15625 0.0625
vt 0.1875 0.0625
vt 0.1875 0.09375
vt 0.15625 0.09375
vt 0.125 0
vt 0.15625 0
vt 0.15625 0.03125
vt 0.125 0.03125

# Normal
vn 0 0 -1

# Mesh description
g NewMansion_mesh_0125

# Faces
f 1/1/1 2/2/1 3/3/1 4/4/1
f 5/5/1 6/6/1 7/7/1 8/8/1
f 9/1/1 10/2/1 11/3/1 12/4/1
f 13/5/1 14/6/1 15/7/1 16/8/1
f 17/1/1 18/2/1 19/3/1 20/4/1
f 21/5/1 22/6/1 23/7/1 24/8/1

