# Tiled2Unity generated file. Do not modify by hand.
# Wavefront file for 'NewMansion_mesh_0074.obj'

# Vertices (Count = 52)
v -9 -6 0
v -10 -6 0
v -10 -5 0
v -9 -5 0
v -10 -6 0
v -11 -6 0
v -11 -5 0
v -10 -5 0
v -9 -7 0
v -10 -7 0
v -10 -6 0
v -9 -6 0
v -10 -7 0
v -11 -7 0
v -11 -6 0
v -10 -6 0
v -9 -8 0
v -10 -8 0
v -10 -7 0
v -9 -7 0
v -10 -8 0
v -11 -8 0
v -11 -7 0
v -10 -7 0
v -13 -8 0
v -14 -8 0
v -14 -7 0
v -13 -7 0
v -9 -9 0
v -10 -9 0
v -10 -8 0
v -9 -8 0
v -13 -9 0
v -14 -9 0
v -14 -8 0
v -13 -8 0
v -14 -9 0
v -15 -9 0
v -15 -8 0
v -14 -8 0
v -9 -10 0
v -10 -10 0
v -10 -9 0
v -9 -9 0
v -13 -10 0
v -14 -10 0
v -14 -9 0
v -13 -9 0
v -14 -10 0
v -15 -10 0
v -15 -9 0
v -14 -9 0

# Texture cooridinates (Count = 27)
vt 0.59375 0.875
vt 0.625 0.875
vt 0.625 0.90625
vt 0.59375 0.90625
vt 0.09375 0.375
vt 0.125 0.375
vt 0.125 0.40625
vt 0.09375 0.40625
vt 0.15625 0.375
vt 0.15625 0.40625
vt 0.09375 0.34375
vt 0.125 0.34375
vt 0.15625 0.34375
vt 0.53125 0.84375
vt 0.5625 0.84375
vt 0.5625 0.875
vt 0.53125 0.875
vt 0.59375 0.84375
vt 0.625 0.9375
vt 0.65625 0.9375
vt 0.65625 0.96875
vt 0.625 0.96875
vt 0.625 0.84375
vt 0.03125 0.375
vt 0.0625 0.375
vt 0.0625 0.40625
vt 0.03125 0.40625

# Normal
vn 0 0 -1

# Mesh description
g NewMansion_mesh_0074

# Faces
f 1/1/1 2/2/1 3/3/1 4/4/1
f 5/1/1 6/2/1 7/3/1 8/4/1
f 9/5/1 10/6/1 11/7/1 12/8/1
f 13/6/1 14/9/1 15/10/1 16/7/1
f 17/11/1 18/12/1 19/6/1 20/5/1
f 21/12/1 22/13/1 23/9/1 24/6/1
f 25/14/1 26/15/1 27/16/1 28/17/1
f 29/15/1 30/18/1 31/1/1 32/16/1
f 33/19/1 34/20/1 35/21/1 36/22/1
f 37/18/1 38/23/1 39/2/1 40/1/1
f 41/19/1 42/20/1 43/21/1 44/22/1
f 45/24/1 46/25/1 47/26/1 48/27/1
f 49/25/1 50/5/1 51/8/1 52/26/1

