# Tiled2Unity generated file. Do not modify by hand.
# Wavefront file for 'NewMansion_mesh_0053.obj'

# Vertices (Count = 76)
v -1 -8 0
v -2 -8 0
v -2 -7 0
v -1 -7 0
v -6 -8 0
v -7 -8 0
v -7 -7 0
v -6 -7 0
v -7 -8 0
v -8 -8 0
v -8 -7 0
v -7 -7 0
v -8 -8 0
v -9 -8 0
v -9 -7 0
v -8 -7 0
v -1 -9 0
v -2 -9 0
v -2 -8 0
v -1 -8 0
v -3 -9 0
v -4 -9 0
v -4 -8 0
v -3 -8 0
v -4 -9 0
v -5 -9 0
v -5 -8 0
v -4 -8 0
v -6 -9 0
v -7 -9 0
v -7 -8 0
v -6 -8 0
v -7 -9 0
v -8 -9 0
v -8 -8 0
v -7 -8 0
v -8 -9 0
v -9 -9 0
v -9 -8 0
v -8 -8 0
v -1 -10 0
v -2 -10 0
v -2 -9 0
v -1 -9 0
v -3 -10 0
v -4 -10 0
v -4 -9 0
v -3 -9 0
v -4 -10 0
v -5 -10 0
v -5 -9 0
v -4 -9 0
v -6 -10 0
v -7 -10 0
v -7 -9 0
v -6 -9 0
v -7 -10 0
v -8 -10 0
v -8 -9 0
v -7 -9 0
v -8 -10 0
v -9 -10 0
v -9 -9 0
v -8 -9 0
v -3 -11 0
v -4 -11 0
v -4 -10 0
v -3 -10 0
v -4 -11 0
v -5 -11 0
v -5 -10 0
v -4 -10 0
v -8 -15 0
v -9 -15 0
v -9 -14 0
v -8 -14 0

# Texture cooridinates (Count = 40)
vt 0.40625 0.625
vt 0.4375 0.625
vt 0.4375 0.65625
vt 0.40625 0.65625
vt 0.59375 0.75
vt 0.625 0.75
vt 0.625 0.78125
vt 0.59375 0.78125
vt 0.5 0.75
vt 0.53125 0.75
vt 0.53125 0.78125
vt 0.5 0.78125
vt 0.40625 0.59375
vt 0.4375 0.59375
vt 0.3125 0.0625
vt 0.34375 0.0625
vt 0.34375 0.09375
vt 0.3125 0.09375
vt 0.375 0.0625
vt 0.375 0.09375
vt 0.59375 0.71875
vt 0.625 0.71875
vt 0.5 0.71875
vt 0.53125 0.71875
vt 0.40625 0.5625
vt 0.4375 0.5625
vt 0.3125 0.03125
vt 0.34375 0.03125
vt 0.375 0.03125
vt 0.59375 0.6875
vt 0.625 0.6875
vt 0.5 0.6875
vt 0.53125 0.6875
vt 0.3125 0
vt 0.34375 0
vt 0.375 0
vt 0.65625 0.03125
vt 0.6875 0.03125
vt 0.6875 0.0625
vt 0.65625 0.0625

# Normal
vn 0 0 -1

# Mesh description
g NewMansion_mesh_0053

# Faces
f 1/1/1 2/2/1 3/3/1 4/4/1
f 5/5/1 6/6/1 7/7/1 8/8/1
f 9/9/1 10/10/1 11/11/1 12/12/1
f 13/5/1 14/6/1 15/7/1 16/8/1
f 17/13/1 18/14/1 19/2/1 20/1/1
f 21/15/1 22/16/1 23/17/1 24/18/1
f 25/16/1 26/19/1 27/20/1 28/17/1
f 29/21/1 30/22/1 31/6/1 32/5/1
f 33/23/1 34/24/1 35/10/1 36/9/1
f 37/21/1 38/22/1 39/6/1 40/5/1
f 41/25/1 42/26/1 43/14/1 44/13/1
f 45/27/1 46/28/1 47/16/1 48/15/1
f 49/28/1 50/29/1 51/19/1 52/16/1
f 53/30/1 54/31/1 55/22/1 56/21/1
f 57/32/1 58/33/1 59/24/1 60/23/1
f 61/30/1 62/31/1 63/22/1 64/21/1
f 65/34/1 66/35/1 67/28/1 68/27/1
f 69/35/1 70/36/1 71/29/1 72/28/1
f 73/37/1 74/38/1 75/39/1 76/40/1

