# Tiled2Unity generated file. Do not modify by hand.
# Wavefront file for 'NewMansion_mesh_0073.obj'

# Vertices (Count = 48)
v -3 -8 0
v -4 -8 0
v -4 -7 0
v -3 -7 0
v -5 -8 0
v -6 -8 0
v -6 -7 0
v -5 -7 0
v -6 -8 0
v -7 -8 0
v -7 -7 0
v -6 -7 0
v -1 -9 0
v -2 -9 0
v -2 -8 0
v -1 -8 0
v -2 -9 0
v -3 -9 0
v -3 -8 0
v -2 -8 0
v -5 -9 0
v -6 -9 0
v -6 -8 0
v -5 -8 0
v -1 -10 0
v -2 -10 0
v -2 -9 0
v -1 -9 0
v -2 -10 0
v -3 -10 0
v -3 -9 0
v -2 -9 0
v -3 -10 0
v -4 -10 0
v -4 -9 0
v -3 -9 0
v -4 -10 0
v -5 -10 0
v -5 -9 0
v -4 -9 0
v -5 -10 0
v -6 -10 0
v -6 -9 0
v -5 -9 0
v -6 -10 0
v -7 -10 0
v -7 -9 0
v -6 -9 0

# Texture cooridinates (Count = 8)
vt 0.625 0.78125
vt 0.65625 0.78125
vt 0.65625 0.8125
vt 0.625 0.8125
vt 0.53125 0.03125
vt 0.5625 0.03125
vt 0.5625 0.0625
vt 0.53125 0.0625

# Normal
vn 0 0 -1

# Mesh description
g NewMansion_mesh_0073

# Faces
f 1/1/1 2/2/1 3/3/1 4/4/1
f 5/1/1 6/2/1 7/3/1 8/4/1
f 9/1/1 10/2/1 11/3/1 12/4/1
f 13/1/1 14/2/1 15/3/1 16/4/1
f 17/1/1 18/2/1 19/3/1 20/4/1
f 21/1/1 22/2/1 23/3/1 24/4/1
f 25/5/1 26/6/1 27/7/1 28/8/1
f 29/5/1 30/6/1 31/7/1 32/8/1
f 33/5/1 34/6/1 35/7/1 36/8/1
f 37/5/1 38/6/1 39/7/1 40/8/1
f 41/5/1 42/6/1 43/7/1 44/8/1
f 45/5/1 46/6/1 47/7/1 48/8/1

