# Tiled2Unity generated file. Do not modify by hand.
# Wavefront file for 'NewMansion_mesh_0113.obj'

# Vertices (Count = 168)
v 0 -4 0
v -1 -4 0
v -1 -3 0
v 0 -3 0
v -1 -4 0
v -2 -4 0
v -2 -3 0
v -1 -3 0
v 0 -5 0
v -1 -5 0
v -1 -4 0
v 0 -4 0
v -1 -5 0
v -2 -5 0
v -2 -4 0
v -1 -4 0
v -2 -5 0
v -3 -5 0
v -3 -4 0
v -2 -4 0
v -3 -5 0
v -4 -5 0
v -4 -4 0
v -3 -4 0
v -4 -5 0
v -5 -5 0
v -5 -4 0
v -4 -4 0
v -8 -5 0
v -9 -5 0
v -9 -4 0
v -8 -4 0
v 0 -6 0
v -1 -6 0
v -1 -5 0
v 0 -5 0
v -1 -6 0
v -2 -6 0
v -2 -5 0
v -1 -5 0
v -2 -6 0
v -3 -6 0
v -3 -5 0
v -2 -5 0
v -3 -6 0
v -4 -6 0
v -4 -5 0
v -3 -5 0
v -4 -6 0
v -5 -6 0
v -5 -5 0
v -4 -5 0
v -8 -6 0
v -9 -6 0
v -9 -5 0
v -8 -5 0
v -1 -7 0
v -2 -7 0
v -2 -6 0
v -1 -6 0
v -2 -7 0
v -3 -7 0
v -3 -6 0
v -2 -6 0
v -3 -7 0
v -4 -7 0
v -4 -6 0
v -3 -6 0
v -4 -7 0
v -5 -7 0
v -5 -6 0
v -4 -6 0
v -5 -7 0
v -6 -7 0
v -6 -6 0
v -5 -6 0
v -6 -7 0
v -7 -7 0
v -7 -6 0
v -6 -6 0
v -1 -8 0
v -2 -8 0
v -2 -7 0
v -1 -7 0
v -2 -8 0
v -3 -8 0
v -3 -7 0
v -2 -7 0
v -3 -8 0
v -4 -8 0
v -4 -7 0
v -3 -7 0
v -4 -8 0
v -5 -8 0
v -5 -7 0
v -4 -7 0
v -5 -8 0
v -6 -8 0
v -6 -7 0
v -5 -7 0
v -6 -8 0
v -7 -8 0
v -7 -7 0
v -6 -7 0
v -1 -9 0
v -2 -9 0
v -2 -8 0
v -1 -8 0
v -2 -9 0
v -3 -9 0
v -3 -8 0
v -2 -8 0
v -3 -9 0
v -4 -9 0
v -4 -8 0
v -3 -8 0
v -4 -9 0
v -5 -9 0
v -5 -8 0
v -4 -8 0
v -5 -9 0
v -6 -9 0
v -6 -8 0
v -5 -8 0
v -6 -9 0
v -7 -9 0
v -7 -8 0
v -6 -8 0
v -1 -10 0
v -2 -10 0
v -2 -9 0
v -1 -9 0
v -2 -10 0
v -3 -10 0
v -3 -9 0
v -2 -9 0
v -3 -10 0
v -4 -10 0
v -4 -9 0
v -3 -9 0
v -4 -10 0
v -5 -10 0
v -5 -9 0
v -4 -9 0
v -5 -10 0
v -6 -10 0
v -6 -9 0
v -5 -9 0
v -6 -10 0
v -7 -10 0
v -7 -9 0
v -6 -9 0
v -1 -16 0
v -2 -16 0
v -2 -15 0
v -1 -15 0
v -6 -16 0
v -7 -16 0
v -7 -15 0
v -6 -15 0
v -7 -16 0
v -8 -16 0
v -8 -15 0
v -7 -15 0
v -8 -16 0
v -9 -16 0
v -9 -15 0
v -8 -15 0

# Texture cooridinates (Count = 55)
vt 0.4375 0.84375
vt 0.46875 0.84375
vt 0.46875 0.875
vt 0.4375 0.875
vt 0.4375 0.8125
vt 0.46875 0.8125
vt 0.46875 0.75
vt 0.5 0.75
vt 0.5 0.78125
vt 0.46875 0.78125
vt 0.59375 0.03125
vt 0.625 0.03125
vt 0.625 0.0625
vt 0.59375 0.0625
vt 0.4375 0.78125
vt 0.46875 0.6875
vt 0.5 0.6875
vt 0.5 0.71875
vt 0.46875 0.71875
vt 0.59375 0
vt 0.625 0
vt 0.5 0.03125
vt 0.53125 0.03125
vt 0.53125 0.0625
vt 0.5 0.0625
vt 0.25 0.53125
vt 0.28125 0.53125
vt 0.28125 0.5625
vt 0.25 0.5625
vt 0.3125 0.53125
vt 0.3125 0.5625
vt 0.34375 0.53125
vt 0.34375 0.5625
vt 0.25 0.46875
vt 0.28125 0.46875
vt 0.28125 0.5
vt 0.25 0.5
vt 0.3125 0.46875
vt 0.3125 0.5
vt 0.34375 0.46875
vt 0.34375 0.5
vt 0.25 0.4375
vt 0.28125 0.4375
vt 0.3125 0.4375
vt 0.34375 0.4375
vt 0.40625 0.625
vt 0.4375 0.625
vt 0.4375 0.65625
vt 0.40625 0.65625
vt 0.59375 0.75
vt 0.625 0.75
vt 0.625 0.78125
vt 0.59375 0.78125
vt 0.53125 0.75
vt 0.53125 0.78125

# Normal
vn 0 0 -1

# Mesh description
g NewMansion_mesh_0113

# Faces
f 1/1/1 2/2/1 3/3/1 4/4/1
f 5/1/1 6/2/1 7/3/1 8/4/1
f 9/5/1 10/6/1 11/2/1 12/1/1
f 13/5/1 14/6/1 15/2/1 16/1/1
f 17/7/1 18/8/1 19/9/1 20/10/1
f 21/7/1 22/8/1 23/9/1 24/10/1
f 25/7/1 26/8/1 27/9/1 28/10/1
f 29/11/1 30/12/1 31/13/1 32/14/1
f 33/15/1 34/10/1 35/6/1 36/5/1
f 37/15/1 38/10/1 39/6/1 40/5/1
f 41/16/1 42/17/1 43/18/1 44/19/1
f 45/16/1 46/17/1 47/18/1 48/19/1
f 49/16/1 50/17/1 51/18/1 52/19/1
f 53/20/1 54/21/1 55/12/1 56/11/1
f 57/22/1 58/23/1 59/24/1 60/25/1
f 61/22/1 62/23/1 63/24/1 64/25/1
f 65/22/1 66/23/1 67/24/1 68/25/1
f 69/22/1 70/23/1 71/24/1 72/25/1
f 73/22/1 74/23/1 75/24/1 76/25/1
f 77/22/1 78/23/1 79/24/1 80/25/1
f 81/26/1 82/27/1 83/28/1 84/29/1
f 85/27/1 86/30/1 87/31/1 88/28/1
f 89/27/1 90/30/1 91/31/1 92/28/1
f 93/27/1 94/30/1 95/31/1 96/28/1
f 97/27/1 98/30/1 99/31/1 100/28/1
f 101/30/1 102/32/1 103/33/1 104/31/1
f 105/34/1 106/35/1 107/36/1 108/37/1
f 109/35/1 110/38/1 111/39/1 112/36/1
f 113/35/1 114/38/1 115/39/1 116/36/1
f 117/27/1 118/30/1 119/31/1 120/28/1
f 121/35/1 122/38/1 123/39/1 124/36/1
f 125/38/1 126/40/1 127/41/1 128/39/1
f 129/42/1 130/43/1 131/35/1 132/34/1
f 133/43/1 134/44/1 135/38/1 136/35/1
f 137/43/1 138/44/1 139/38/1 140/35/1
f 141/43/1 142/44/1 143/38/1 144/35/1
f 145/43/1 146/44/1 147/38/1 148/35/1
f 149/44/1 150/45/1 151/40/1 152/38/1
f 153/46/1 154/47/1 155/48/1 156/49/1
f 157/50/1 158/51/1 159/52/1 160/53/1
f 161/8/1 162/54/1 163/55/1 164/9/1
f 165/50/1 166/51/1 167/52/1 168/53/1

