# Tiled2Unity generated file. Do not modify by hand.
# Wavefront file for 'NewMansion_mesh_0114.obj'

# Vertices (Count = 200)
v -13 -4 0
v -14 -4 0
v -14 -3 0
v -13 -3 0
v -14 -4 0
v -15 -4 0
v -15 -3 0
v -14 -3 0
v -15 -4 0
v -16 -4 0
v -16 -3 0
v -15 -3 0
v -7 -5 0
v -8 -5 0
v -8 -4 0
v -7 -4 0
v -8 -5 0
v -9 -5 0
v -9 -4 0
v -8 -4 0
v -9 -5 0
v -10 -5 0
v -10 -4 0
v -9 -4 0
v -10 -5 0
v -11 -5 0
v -11 -4 0
v -10 -4 0
v -11 -5 0
v -12 -5 0
v -12 -4 0
v -11 -4 0
v -12 -5 0
v -13 -5 0
v -13 -4 0
v -12 -4 0
v -13 -5 0
v -14 -5 0
v -14 -4 0
v -13 -4 0
v -14 -5 0
v -15 -5 0
v -15 -4 0
v -14 -4 0
v -15 -5 0
v -16 -5 0
v -16 -4 0
v -15 -4 0
v -7 -6 0
v -8 -6 0
v -8 -5 0
v -7 -5 0
v -8 -6 0
v -9 -6 0
v -9 -5 0
v -8 -5 0
v -9 -6 0
v -10 -6 0
v -10 -5 0
v -9 -5 0
v -10 -6 0
v -11 -6 0
v -11 -5 0
v -10 -5 0
v -11 -6 0
v -12 -6 0
v -12 -5 0
v -11 -5 0
v -12 -6 0
v -13 -6 0
v -13 -5 0
v -12 -5 0
v -13 -6 0
v -14 -6 0
v -14 -5 0
v -13 -5 0
v -14 -6 0
v -15 -6 0
v -15 -5 0
v -14 -5 0
v -15 -6 0
v -16 -6 0
v -16 -5 0
v -15 -5 0
v -9 -7 0
v -10 -7 0
v -10 -6 0
v -9 -6 0
v -10 -7 0
v -11 -7 0
v -11 -6 0
v -10 -6 0
v -13 -7 0
v -14 -7 0
v -14 -6 0
v -13 -6 0
v -14 -7 0
v -15 -7 0
v -15 -6 0
v -14 -6 0
v -9 -8 0
v -10 -8 0
v -10 -7 0
v -9 -7 0
v -10 -8 0
v -11 -8 0
v -11 -7 0
v -10 -7 0
v -13 -8 0
v -14 -8 0
v -14 -7 0
v -13 -7 0
v -14 -8 0
v -15 -8 0
v -15 -7 0
v -14 -7 0
v -9 -9 0
v -10 -9 0
v -10 -8 0
v -9 -8 0
v -10 -9 0
v -11 -9 0
v -11 -8 0
v -10 -8 0
v -13 -9 0
v -14 -9 0
v -14 -8 0
v -13 -8 0
v -14 -9 0
v -15 -9 0
v -15 -8 0
v -14 -8 0
v -9 -10 0
v -10 -10 0
v -10 -9 0
v -9 -9 0
v -10 -10 0
v -11 -10 0
v -11 -9 0
v -10 -9 0
v -13 -10 0
v -14 -10 0
v -14 -9 0
v -13 -9 0
v -14 -10 0
v -15 -10 0
v -15 -9 0
v -14 -9 0
v -7 -11 0
v -8 -11 0
v -8 -10 0
v -7 -10 0
v -8 -11 0
v -9 -11 0
v -9 -10 0
v -8 -10 0
v -9 -11 0
v -10 -11 0
v -10 -10 0
v -9 -10 0
v -10 -11 0
v -11 -11 0
v -11 -10 0
v -10 -10 0
v -11 -11 0
v -12 -11 0
v -12 -10 0
v -11 -10 0
v -12 -11 0
v -13 -11 0
v -13 -10 0
v -12 -10 0
v -13 -11 0
v -14 -11 0
v -14 -10 0
v -13 -10 0
v -14 -11 0
v -15 -11 0
v -15 -10 0
v -14 -10 0
v -15 -11 0
v -16 -11 0
v -16 -10 0
v -15 -10 0
v -7 -16 0
v -8 -16 0
v -8 -15 0
v -7 -15 0
v -8 -16 0
v -9 -16 0
v -9 -15 0
v -8 -15 0
v -9 -16 0
v -10 -16 0
v -10 -15 0
v -9 -15 0
v -14 -16 0
v -15 -16 0
v -15 -15 0
v -14 -15 0

# Texture cooridinates (Count = 60)
vt 0.1875 0.0625
vt 0.21875 0.0625
vt 0.21875 0.09375
vt 0.1875 0.09375
vt 0 0.5
vt 0.03125 0.5
vt 0.03125 0.53125
vt 0 0.53125
vt 0 0.4375
vt 0.03125 0.4375
vt 0.03125 0.46875
vt 0 0.46875
vt 0 0.625
vt 0.03125 0.625
vt 0.03125 0.65625
vt 0 0.65625
vt 0.1875 0.03125
vt 0.21875 0.03125
vt 0 0.40625
vt 0.03125 0.40625
vt 0 0.59375
vt 0.03125 0.59375
vt 0.21875 0
vt 0.25 0
vt 0.25 0.03125
vt 0.1875 0
vt 0.4375 0.0625
vt 0.46875 0.0625
vt 0.46875 0.09375
vt 0.4375 0.09375
vt 0.5 0.0625
vt 0.5 0.09375
vt 0.4375 0.03125
vt 0.46875 0.03125
vt 0.5 0.03125
vt 0.09375 0.5625
vt 0.125 0.5625
vt 0.125 0.59375
vt 0.09375 0.59375
vt 0.15625 0.5625
vt 0.15625 0.59375
vt 0.4375 0
vt 0.46875 0
vt 0.5 0
vt 0.09375 0.625
vt 0.125 0.625
vt 0.125 0.65625
vt 0.09375 0.65625
vt 0.59375 0.75
vt 0.625 0.75
vt 0.625 0.78125
vt 0.59375 0.78125
vt 0.5 0.75
vt 0.53125 0.75
vt 0.53125 0.78125
vt 0.5 0.78125
vt 0.40625 0.625
vt 0.4375 0.625
vt 0.4375 0.65625
vt 0.40625 0.65625

# Normal
vn 0 0 -1

# Mesh description
g NewMansion_mesh_0114

# Faces
f 1/1/1 2/2/1 3/3/1 4/4/1
f 5/1/1 6/2/1 7/3/1 8/4/1
f 9/1/1 10/2/1 11/3/1 12/4/1
f 13/5/1 14/6/1 15/7/1 16/8/1
f 17/5/1 18/6/1 19/7/1 20/8/1
f 21/9/1 22/10/1 23/11/1 24/12/1
f 25/9/1 26/10/1 27/11/1 28/12/1
f 29/13/1 30/14/1 31/15/1 32/16/1
f 33/13/1 34/14/1 35/15/1 36/16/1
f 37/17/1 38/18/1 39/2/1 40/1/1
f 41/17/1 42/18/1 43/2/1 44/1/1
f 45/17/1 46/18/1 47/2/1 48/1/1
f 49/12/1 50/11/1 51/6/1 52/5/1
f 53/12/1 54/11/1 55/6/1 56/5/1
f 57/19/1 58/20/1 59/10/1 60/9/1
f 61/19/1 62/20/1 63/10/1 64/9/1
f 65/21/1 66/22/1 67/14/1 68/13/1
f 69/21/1 70/22/1 71/14/1 72/13/1
f 73/23/1 74/24/1 75/25/1 76/18/1
f 77/23/1 78/24/1 79/25/1 80/18/1
f 81/26/1 82/23/1 83/18/1 84/17/1
f 85/27/1 86/28/1 87/29/1 88/30/1
f 89/28/1 90/31/1 91/32/1 92/29/1
f 93/27/1 94/28/1 95/29/1 96/30/1
f 97/28/1 98/31/1 99/32/1 100/29/1
f 101/33/1 102/34/1 103/28/1 104/27/1
f 105/34/1 106/35/1 107/31/1 108/28/1
f 109/33/1 110/34/1 111/28/1 112/27/1
f 113/34/1 114/35/1 115/31/1 116/28/1
f 117/33/1 118/34/1 119/28/1 120/27/1
f 121/34/1 122/35/1 123/31/1 124/28/1
f 125/33/1 126/34/1 127/28/1 128/27/1
f 129/34/1 130/35/1 131/31/1 132/28/1
f 133/33/1 134/34/1 135/28/1 136/27/1
f 137/34/1 138/35/1 139/31/1 140/28/1
f 141/33/1 142/34/1 143/28/1 144/27/1
f 145/34/1 146/35/1 147/31/1 148/28/1
f 149/36/1 150/37/1 151/38/1 152/39/1
f 153/37/1 154/40/1 155/41/1 156/38/1
f 157/42/1 158/43/1 159/34/1 160/33/1
f 161/43/1 162/44/1 163/35/1 164/34/1
f 165/36/1 166/37/1 167/38/1 168/39/1
f 169/37/1 170/40/1 171/41/1 172/38/1
f 173/42/1 174/43/1 175/34/1 176/33/1
f 177/43/1 178/44/1 179/35/1 180/34/1
f 181/45/1 182/46/1 183/47/1 184/48/1
f 185/49/1 186/50/1 187/51/1 188/52/1
f 189/53/1 190/54/1 191/55/1 192/56/1
f 193/49/1 194/50/1 195/51/1 196/52/1
f 197/57/1 198/58/1 199/59/1 200/60/1

