# Tiled2Unity generated file. Do not modify by hand.
# Wavefront file for 'NewMansion_mesh_0059.obj'

# Vertices (Count = 124)
v -1 -4 0
v -2 -4 0
v -2 -3 0
v -1 -3 0
v -2 -4 0
v -3 -4 0
v -3 -3 0
v -2 -3 0
v -3 -4 0
v -4 -4 0
v -4 -3 0
v -3 -3 0
v -8 -4 0
v -9 -4 0
v -9 -3 0
v -8 -3 0
v -10 -4 0
v -11 -4 0
v -11 -3 0
v -10 -3 0
v -15 -4 0
v -16 -4 0
v -16 -3 0
v -15 -3 0
v -1 -5 0
v -2 -5 0
v -2 -4 0
v -1 -4 0
v -2 -5 0
v -3 -5 0
v -3 -4 0
v -2 -4 0
v -3 -5 0
v -4 -5 0
v -4 -4 0
v -3 -4 0
v -5 -5 0
v -6 -5 0
v -6 -4 0
v -5 -4 0
v -6 -5 0
v -7 -5 0
v -7 -4 0
v -6 -4 0
v -8 -5 0
v -9 -5 0
v -9 -4 0
v -8 -4 0
v -10 -5 0
v -11 -5 0
v -11 -4 0
v -10 -4 0
v -15 -5 0
v -16 -5 0
v -16 -4 0
v -15 -4 0
v -1 -6 0
v -2 -6 0
v -2 -5 0
v -1 -5 0
v -2 -6 0
v -3 -6 0
v -3 -5 0
v -2 -5 0
v -3 -6 0
v -4 -6 0
v -4 -5 0
v -3 -5 0
v -5 -6 0
v -6 -6 0
v -6 -5 0
v -5 -5 0
v -6 -6 0
v -7 -6 0
v -7 -5 0
v -6 -5 0
v -8 -6 0
v -9 -6 0
v -9 -5 0
v -8 -5 0
v -10 -6 0
v -11 -6 0
v -11 -5 0
v -10 -5 0
v -15 -6 0
v -16 -6 0
v -16 -5 0
v -15 -5 0
v -5 -7 0
v -6 -7 0
v -6 -6 0
v -5 -6 0
v -6 -7 0
v -7 -7 0
v -7 -6 0
v -6 -6 0
v -1 -11 0
v -2 -11 0
v -2 -10 0
v -1 -10 0
v -1 -16 0
v -2 -16 0
v -2 -15 0
v -1 -15 0
v -2 -16 0
v -3 -16 0
v -3 -15 0
v -2 -15 0
v -3 -16 0
v -4 -16 0
v -4 -15 0
v -3 -15 0
v -8 -16 0
v -9 -16 0
v -9 -15 0
v -8 -15 0
v -10 -16 0
v -11 -16 0
v -11 -15 0
v -10 -15 0
v -15 -16 0
v -16 -16 0
v -16 -15 0
v -15 -15 0

# Texture cooridinates (Count = 51)
vt 0.59375 0.75
vt 0.625 0.75
vt 0.625 0.78125
vt 0.59375 0.78125
vt 0.5 0.75
vt 0.53125 0.75
vt 0.53125 0.78125
vt 0.5 0.78125
vt 0.46875 0.84375
vt 0.5 0.84375
vt 0.5 0.875
vt 0.46875 0.875
vt 0.40625 0.625
vt 0.4375 0.625
vt 0.4375 0.65625
vt 0.40625 0.65625
vt 0.4375 0.84375
vt 0.4375 0.875
vt 0.59375 0.71875
vt 0.625 0.71875
vt 0.5 0.71875
vt 0.53125 0.71875
vt 0.3125 0.0625
vt 0.34375 0.0625
vt 0.34375 0.09375
vt 0.3125 0.09375
vt 0.375 0.0625
vt 0.375 0.09375
vt 0.40625 0.59375
vt 0.4375 0.59375
vt 0.46875 0.8125
vt 0.5 0.8125
vt 0.4375 0.8125
vt 0.59375 0.6875
vt 0.625 0.6875
vt 0.5 0.6875
vt 0.53125 0.6875
vt 0.3125 0.03125
vt 0.34375 0.03125
vt 0.375 0.03125
vt 0.40625 0.5625
vt 0.4375 0.5625
vt 0.4375 0.78125
vt 0.46875 0.78125
vt 0.3125 0
vt 0.34375 0
vt 0.375 0
vt 0.65625 0.03125
vt 0.6875 0.03125
vt 0.6875 0.0625
vt 0.65625 0.0625

# Normal
vn 0 0 -1

# Mesh description
g NewMansion_mesh_0059

# Faces
f 1/1/1 2/2/1 3/3/1 4/4/1
f 5/5/1 6/6/1 7/7/1 8/8/1
f 9/1/1 10/2/1 11/3/1 12/4/1
f 13/9/1 14/10/1 15/11/1 16/12/1
f 17/13/1 18/14/1 19/15/1 20/16/1
f 21/17/1 22/9/1 23/12/1 24/18/1
f 25/19/1 26/20/1 27/2/1 28/1/1
f 29/21/1 30/22/1 31/6/1 32/5/1
f 33/19/1 34/20/1 35/2/1 36/1/1
f 37/23/1 38/24/1 39/25/1 40/26/1
f 41/24/1 42/27/1 43/28/1 44/25/1
f 45/29/1 46/30/1 47/14/1 48/13/1
f 49/31/1 50/32/1 51/10/1 52/9/1
f 53/33/1 54/31/1 55/9/1 56/17/1
f 57/34/1 58/35/1 59/20/1 60/19/1
f 61/36/1 62/37/1 63/22/1 64/21/1
f 65/34/1 66/35/1 67/20/1 68/19/1
f 69/38/1 70/39/1 71/24/1 72/23/1
f 73/39/1 74/40/1 75/27/1 76/24/1
f 77/41/1 78/42/1 79/30/1 80/29/1
f 81/41/1 82/42/1 83/30/1 84/29/1
f 85/43/1 86/44/1 87/31/1 88/33/1
f 89/45/1 90/46/1 91/39/1 92/38/1
f 93/46/1 94/47/1 95/40/1 96/39/1
f 97/48/1 98/49/1 99/50/1 100/51/1
f 101/1/1 102/2/1 103/3/1 104/4/1
f 105/5/1 106/6/1 107/7/1 108/8/1
f 109/1/1 110/2/1 111/3/1 112/4/1
f 113/9/1 114/10/1 115/11/1 116/12/1
f 117/9/1 118/10/1 119/11/1 120/12/1
f 121/9/1 122/10/1 123/11/1 124/12/1

