# Tiled2Unity generated file. Do not modify by hand.
# Wavefront file for 'NewMansion2ndFloor_mesh_0079.obj'

# Vertices (Count = 40)
v -3 -1 0
v -4 -1 0
v -4 0 0
v -3 0 0
v -5 -1 0
v -6 -1 0
v -6 0 0
v -5 0 0
v -7 -1 0
v -8 -1 0
v -8 0 0
v -7 0 0
v -8 -1 0
v -9 -1 0
v -9 0 0
v -8 0 0
v -10 -1 0
v -11 -1 0
v -11 0 0
v -10 0 0
v -11 -1 0
v -12 -1 0
v -12 0 0
v -11 0 0
v -12 -1 0
v -13 -1 0
v -13 0 0
v -12 0 0
v -7 -2 0
v -8 -2 0
v -8 -1 0
v -7 -1 0
v -8 -2 0
v -9 -2 0
v -9 -1 0
v -8 -1 0
v -12 -6 0
v -13 -6 0
v -13 -5 0
v -12 -5 0

# Texture cooridinates (Count = 25)
vt 0.40625 0.5625
vt 0.4375 0.5625
vt 0.4375 0.59375
vt 0.40625 0.59375
vt 0.3125 0.03125
vt 0.34375 0.03125
vt 0.34375 0.0625
vt 0.3125 0.0625
vt 0.375 0.03125
vt 0.375 0.0625
vt 0.59375 0.6875
vt 0.625 0.6875
vt 0.625 0.71875
vt 0.59375 0.71875
vt 0.5 0.6875
vt 0.53125 0.6875
vt 0.53125 0.71875
vt 0.5 0.71875
vt 0.3125 0
vt 0.34375 0
vt 0.375 0
vt 0.65625 0.03125
vt 0.6875 0.03125
vt 0.6875 0.0625
vt 0.65625 0.0625

# Normal
vn 0 0 -1

# Mesh description
g NewMansion2ndFloor_mesh_0079

# Faces
f 1/1/1 2/2/1 3/3/1 4/4/1
f 5/1/1 6/2/1 7/3/1 8/4/1
f 9/5/1 10/6/1 11/7/1 12/8/1
f 13/6/1 14/9/1 15/10/1 16/7/1
f 17/11/1 18/12/1 19/13/1 20/14/1
f 21/15/1 22/16/1 23/17/1 24/18/1
f 25/11/1 26/12/1 27/13/1 28/14/1
f 29/19/1 30/20/1 31/6/1 32/5/1
f 33/20/1 34/21/1 35/9/1 36/6/1
f 37/22/1 38/23/1 39/24/1 40/25/1

