# Tiled2Unity generated file. Do not modify by hand.
# Wavefront file for 'NewMansion2ndFloor_mesh_0084.obj'

# Vertices (Count = 24)
v -4 -1 0
v -5 -1 0
v -5 0 0
v -4 0 0
v -5 -1 0
v -6 -1 0
v -6 0 0
v -5 0 0
v -6 -1 0
v -7 -1 0
v -7 0 0
v -6 0 0
v -9 -1 0
v -10 -1 0
v -10 0 0
v -9 0 0
v -10 -1 0
v -11 -1 0
v -11 0 0
v -10 0 0
v -11 -1 0
v -12 -1 0
v -12 0 0
v -11 0 0

# Texture cooridinates (Count = 12)
vt 0.15625 0.03125
vt 0.1875 0.03125
vt 0.1875 0.0625
vt 0.15625 0.0625
vt 0.4375 0
vt 0.46875 0
vt 0.46875 0.03125
vt 0.4375 0.03125
vt 0.5 0
vt 0.5 0.03125
vt 0.15625 0
vt 0.1875 0

# Normal
vn 0 0 -1

# Mesh description
g NewMansion2ndFloor_mesh_0084

# Faces
f 1/1/1 2/2/1 3/3/1 4/4/1
f 5/5/1 6/6/1 7/7/1 8/8/1
f 9/6/1 10/9/1 11/10/1 12/7/1
f 13/5/1 14/6/1 15/7/1 16/8/1
f 17/6/1 18/9/1 19/10/1 20/7/1
f 21/11/1 22/12/1 23/2/1 24/1/1

