# Tiled2Unity generated file. Do not modify by hand.
# Wavefront file for 'Overworld_mesh_0002.obj'

# Vertices (Count = 168)
v -12 -94 0
v -13 -94 0
v -13 -93 0
v -12 -93 0
v -11 -94 0
v -12 -94 0
v -12 -93 0
v -11 -93 0
v -10 -94 0
v -11 -94 0
v -11 -93 0
v -10 -93 0
v -9 -94 0
v -10 -94 0
v -10 -93 0
v -9 -93 0
v -8 -94 0
v -9 -94 0
v -9 -93 0
v -8 -93 0
v -7 -94 0
v -8 -94 0
v -8 -93 0
v -7 -93 0
v -6 -94 0
v -7 -94 0
v -7 -93 0
v -6 -93 0
v -5 -94 0
v -6 -94 0
v -6 -93 0
v -5 -93 0
v -4 -94 0
v -5 -94 0
v -5 -93 0
v -4 -93 0
v -3 -94 0
v -4 -94 0
v -4 -93 0
v -3 -93 0
v -2 -94 0
v -3 -94 0
v -3 -93 0
v -2 -93 0
v -1 -94 0
v -2 -94 0
v -2 -93 0
v -1 -93 0
v 0 -94 0
v -1 -94 0
v -1 -93 0
v 0 -93 0
v -12 -95 0
v -13 -95 0
v -13 -94 0
v -12 -94 0
v -11 -95 0
v -12 -95 0
v -12 -94 0
v -11 -94 0
v -10 -95 0
v -11 -95 0
v -11 -94 0
v -10 -94 0
v -9 -95 0
v -10 -95 0
v -10 -94 0
v -9 -94 0
v -8 -95 0
v -9 -95 0
v -9 -94 0
v -8 -94 0
v -7 -95 0
v -8 -95 0
v -8 -94 0
v -7 -94 0
v -6 -95 0
v -7 -95 0
v -7 -94 0
v -6 -94 0
v -5 -95 0
v -6 -95 0
v -6 -94 0
v -5 -94 0
v -4 -95 0
v -5 -95 0
v -5 -94 0
v -4 -94 0
v -3 -95 0
v -4 -95 0
v -4 -94 0
v -3 -94 0
v -2 -95 0
v -3 -95 0
v -3 -94 0
v -2 -94 0
v -1 -95 0
v -2 -95 0
v -2 -94 0
v -1 -94 0
v 0 -95 0
v -1 -95 0
v -1 -94 0
v 0 -94 0
v -12 -96 0
v -13 -96 0
v -13 -95 0
v -12 -95 0
v -11 -96 0
v -12 -96 0
v -12 -95 0
v -11 -95 0
v -10 -96 0
v -11 -96 0
v -11 -95 0
v -10 -95 0
v -9 -96 0
v -10 -96 0
v -10 -95 0
v -9 -95 0
v -8 -96 0
v -9 -96 0
v -9 -95 0
v -8 -95 0
v -7 -96 0
v -8 -96 0
v -8 -95 0
v -7 -95 0
v -6 -96 0
v -7 -96 0
v -7 -95 0
v -6 -95 0
v -5 -96 0
v -6 -96 0
v -6 -95 0
v -5 -95 0
v -4 -96 0
v -5 -96 0
v -5 -95 0
v -4 -95 0
v -3 -96 0
v -4 -96 0
v -4 -95 0
v -3 -95 0
v -2 -96 0
v -3 -96 0
v -3 -95 0
v -2 -95 0
v -1 -96 0
v -2 -96 0
v -2 -95 0
v -1 -95 0
v 0 -96 0
v -1 -96 0
v -1 -95 0
v 0 -95 0
v -12 -97 0
v -13 -97 0
v -13 -96 0
v -12 -96 0
v -12 -98 0
v -13 -98 0
v -13 -97 0
v -12 -97 0
v -12 -100 0
v -13 -100 0
v -13 -99 0
v -12 -99 0

# Texture cooridinates (Count = 18)
vt 0.3125 0.5
vt 0.375 0.5
vt 0.375 0.5625
vt 0.3125 0.5625
vt 0.1875 0.4375
vt 0.25 0.4375
vt 0.25 0.5
vt 0.1875 0.5
vt 0.4375 0.5
vt 0.4375 0.5625
vt 0.0625 0.5625
vt 0.125 0.5625
vt 0.125 0.625
vt 0.0625 0.625
vt 0.375 0.625
vt 0.3125 0.625
vt 0 0.5625
vt 0 0.625

# Normal
vn 0 0 -1

# Mesh description
g Overworld_mesh_0002

# Faces
f 1/1/1 2/2/1 3/3/1 4/4/1
f 5/5/1 6/6/1 7/7/1 8/8/1
f 9/5/1 10/6/1 11/7/1 12/8/1
f 13/5/1 14/6/1 15/7/1 16/8/1
f 17/5/1 18/6/1 19/7/1 20/8/1
f 21/5/1 22/6/1 23/7/1 24/8/1
f 25/5/1 26/6/1 27/7/1 28/8/1
f 29/5/1 30/6/1 31/7/1 32/8/1
f 33/5/1 34/6/1 35/7/1 36/8/1
f 37/5/1 38/6/1 39/7/1 40/8/1
f 41/5/1 42/6/1 43/7/1 44/8/1
f 45/5/1 46/6/1 47/7/1 48/8/1
f 49/5/1 50/6/1 51/7/1 52/8/1
f 53/2/1 54/9/1 55/10/1 56/3/1
f 57/11/1 58/12/1 59/13/1 60/14/1
f 61/4/1 62/3/1 63/15/1 64/16/1
f 65/4/1 66/3/1 67/15/1 68/16/1
f 69/4/1 70/3/1 71/15/1 72/16/1
f 73/4/1 74/3/1 75/15/1 76/16/1
f 77/4/1 78/3/1 79/15/1 80/16/1
f 81/4/1 82/3/1 83/15/1 84/16/1
f 85/4/1 86/3/1 87/15/1 88/16/1
f 89/4/1 90/3/1 91/15/1 92/16/1
f 93/4/1 94/3/1 95/15/1 96/16/1
f 97/4/1 98/3/1 99/15/1 100/16/1
f 101/17/1 102/11/1 103/14/1 104/18/1
f 105/2/1 106/9/1 107/10/1 108/3/1
f 109/4/1 110/3/1 111/15/1 112/16/1
f 113/4/1 114/3/1 115/15/1 116/16/1
f 117/4/1 118/3/1 119/15/1 120/16/1
f 121/4/1 122/3/1 123/15/1 124/16/1
f 125/4/1 126/3/1 127/15/1 128/16/1
f 129/4/1 130/3/1 131/15/1 132/16/1
f 133/4/1 134/3/1 135/15/1 136/16/1
f 137/4/1 138/3/1 139/15/1 140/16/1
f 141/4/1 142/3/1 143/15/1 144/16/1
f 145/4/1 146/3/1 147/15/1 148/16/1
f 149/4/1 150/3/1 151/15/1 152/16/1
f 153/4/1 154/3/1 155/15/1 156/16/1
f 157/2/1 158/9/1 159/10/1 160/3/1
f 161/2/1 162/9/1 163/10/1 164/3/1
f 165/2/1 166/9/1 167/10/1 168/3/1

