# Tiled2Unity generated file. Do not modify by hand.
# Wavefront file for 'Forest_mesh_0016.obj'

# Vertices (Count = 264)
v -3 -1 0
v -4 -1 0
v -4 0 0
v -3 0 0
v -4 -1 0
v -5 -1 0
v -5 0 0
v -4 0 0
v -5 -1 0
v -6 -1 0
v -6 0 0
v -5 0 0
v -8 -1 0
v -9 -1 0
v -9 0 0
v -8 0 0
v -9 -1 0
v -10 -1 0
v -10 0 0
v -9 0 0
v -10 -1 0
v -11 -1 0
v -11 0 0
v -10 0 0
v -12 -1 0
v -13 -1 0
v -13 0 0
v -12 0 0
v -13 -1 0
v -14 -1 0
v -14 0 0
v -13 0 0
v -14 -1 0
v -15 -1 0
v -15 0 0
v -14 0 0
v 0 -2 0
v -1 -2 0
v -1 -1 0
v 0 -1 0
v -1 -2 0
v -2 -2 0
v -2 -1 0
v -1 -1 0
v -2 -2 0
v -3 -2 0
v -3 -1 0
v -2 -1 0
v -3 -2 0
v -4 -2 0
v -4 -1 0
v -3 -1 0
v -4 -2 0
v -5 -2 0
v -5 -1 0
v -4 -1 0
v -5 -2 0
v -6 -2 0
v -6 -1 0
v -5 -1 0
v -8 -2 0
v -9 -2 0
v -9 -1 0
v -8 -1 0
v -9 -2 0
v -10 -2 0
v -10 -1 0
v -9 -1 0
v -10 -2 0
v -11 -2 0
v -11 -1 0
v -10 -1 0
v -12 -2 0
v -13 -2 0
v -13 -1 0
v -12 -1 0
v -13 -2 0
v -14 -2 0
v -14 -1 0
v -13 -1 0
v -14 -2 0
v -15 -2 0
v -15 -1 0
v -14 -1 0
v 0 -3 0
v -1 -3 0
v -1 -2 0
v 0 -2 0
v -1 -3 0
v -2 -3 0
v -2 -2 0
v -1 -2 0
v -2 -3 0
v -3 -3 0
v -3 -2 0
v -2 -2 0
v -8 -3 0
v -9 -3 0
v -9 -2 0
v -8 -2 0
v -9 -3 0
v -10 -3 0
v -10 -2 0
v -9 -2 0
v -10 -3 0
v -11 -3 0
v -11 -2 0
v -10 -2 0
v -12 -3 0
v -13 -3 0
v -13 -2 0
v -12 -2 0
v -13 -3 0
v -14 -3 0
v -14 -2 0
v -13 -2 0
v -14 -3 0
v -15 -3 0
v -15 -2 0
v -14 -2 0
v 0 -4 0
v -1 -4 0
v -1 -3 0
v 0 -3 0
v -1 -4 0
v -2 -4 0
v -2 -3 0
v -1 -3 0
v -2 -4 0
v -3 -4 0
v -3 -3 0
v -2 -3 0
v 0 -9 0
v -1 -9 0
v -1 -8 0
v 0 -8 0
v -1 -9 0
v -2 -9 0
v -2 -8 0
v -1 -8 0
v -2 -9 0
v -3 -9 0
v -3 -8 0
v -2 -8 0
v -3 -9 0
v -4 -9 0
v -4 -8 0
v -3 -8 0
v -4 -9 0
v -5 -9 0
v -5 -8 0
v -4 -8 0
v -5 -9 0
v -6 -9 0
v -6 -8 0
v -5 -8 0
v -6 -9 0
v -7 -9 0
v -7 -8 0
v -6 -8 0
v -7 -9 0
v -8 -9 0
v -8 -8 0
v -7 -8 0
v -11 -9 0
v -12 -9 0
v -12 -8 0
v -11 -8 0
v -12 -9 0
v -13 -9 0
v -13 -8 0
v -12 -8 0
v -13 -9 0
v -14 -9 0
v -14 -8 0
v -13 -8 0
v 0 -10 0
v -1 -10 0
v -1 -9 0
v 0 -9 0
v -1 -10 0
v -2 -10 0
v -2 -9 0
v -1 -9 0
v -2 -10 0
v -3 -10 0
v -3 -9 0
v -2 -9 0
v -3 -10 0
v -4 -10 0
v -4 -9 0
v -3 -9 0
v -4 -10 0
v -5 -10 0
v -5 -9 0
v -4 -9 0
v -5 -10 0
v -6 -10 0
v -6 -9 0
v -5 -9 0
v -6 -10 0
v -7 -10 0
v -7 -9 0
v -6 -9 0
v -7 -10 0
v -8 -10 0
v -8 -9 0
v -7 -9 0
v -11 -10 0
v -12 -10 0
v -12 -9 0
v -11 -9 0
v -12 -10 0
v -13 -10 0
v -13 -9 0
v -12 -9 0
v -13 -10 0
v -14 -10 0
v -14 -9 0
v -13 -9 0
v 0 -11 0
v -1 -11 0
v -1 -10 0
v 0 -10 0
v -1 -11 0
v -2 -11 0
v -2 -10 0
v -1 -10 0
v -2 -11 0
v -3 -11 0
v -3 -10 0
v -2 -10 0
v -3 -11 0
v -4 -11 0
v -4 -10 0
v -3 -10 0
v -4 -11 0
v -5 -11 0
v -5 -10 0
v -4 -10 0
v -5 -11 0
v -6 -11 0
v -6 -10 0
v -5 -10 0
v -6 -11 0
v -7 -11 0
v -7 -10 0
v -6 -10 0
v -7 -11 0
v -8 -11 0
v -8 -10 0
v -7 -10 0
v -11 -11 0
v -12 -11 0
v -12 -10 0
v -11 -10 0
v -12 -11 0
v -13 -11 0
v -13 -10 0
v -12 -10 0
v -13 -11 0
v -14 -11 0
v -14 -10 0
v -13 -10 0

# Texture cooridinates (Count = 16)
vt 0.5 0.9375
vt 0.53125 0.9375
vt 0.53125 0.96875
vt 0.5 0.96875
vt 0.5625 0.9375
vt 0.5625 0.96875
vt 0.59375 0.9375
vt 0.59375 0.96875
vt 0.53125 1
vt 0.5 1
vt 0.5625 1
vt 0.59375 1
vt 0.5 0.90625
vt 0.53125 0.90625
vt 0.5625 0.90625
vt 0.59375 0.90625

# Normal
vn 0 0 -1

# Mesh description
g Forest_mesh_0016

# Faces
f 1/1/1 2/2/1 3/3/1 4/4/1
f 5/2/1 6/5/1 7/6/1 8/3/1
f 9/5/1 10/7/1 11/8/1 12/6/1
f 13/4/1 14/3/1 15/9/1 16/10/1
f 17/3/1 18/6/1 19/11/1 20/9/1
f 21/6/1 22/8/1 23/12/1 24/11/1
f 25/4/1 26/3/1 27/9/1 28/10/1
f 29/3/1 30/6/1 31/11/1 32/9/1
f 33/6/1 34/8/1 35/12/1 36/11/1
f 37/4/1 38/3/1 39/9/1 40/10/1
f 41/3/1 42/6/1 43/11/1 44/9/1
f 45/6/1 46/8/1 47/12/1 48/11/1
f 49/13/1 50/14/1 51/2/1 52/1/1
f 53/14/1 54/15/1 55/5/1 56/2/1
f 57/15/1 58/16/1 59/7/1 60/5/1
f 61/1/1 62/2/1 63/3/1 64/4/1
f 65/2/1 66/5/1 67/6/1 68/3/1
f 69/5/1 70/7/1 71/8/1 72/6/1
f 73/1/1 74/2/1 75/3/1 76/4/1
f 77/2/1 78/5/1 79/6/1 80/3/1
f 81/5/1 82/7/1 83/8/1 84/6/1
f 85/1/1 86/2/1 87/3/1 88/4/1
f 89/2/1 90/5/1 91/6/1 92/3/1
f 93/5/1 94/7/1 95/8/1 96/6/1
f 97/13/1 98/14/1 99/2/1 100/1/1
f 101/14/1 102/15/1 103/5/1 104/2/1
f 105/15/1 106/16/1 107/7/1 108/5/1
f 109/13/1 110/14/1 111/2/1 112/1/1
f 113/14/1 114/15/1 115/5/1 116/2/1
f 117/15/1 118/16/1 119/7/1 120/5/1
f 121/13/1 122/14/1 123/2/1 124/1/1
f 125/14/1 126/15/1 127/5/1 128/2/1
f 129/15/1 130/16/1 131/7/1 132/5/1
f 133/4/1 134/3/1 135/9/1 136/10/1
f 137/3/1 138/6/1 139/11/1 140/9/1
f 141/6/1 142/8/1 143/12/1 144/11/1
f 145/4/1 146/3/1 147/9/1 148/10/1
f 149/3/1 150/6/1 151/11/1 152/9/1
f 153/4/1 154/3/1 155/9/1 156/10/1
f 157/3/1 158/6/1 159/11/1 160/9/1
f 161/6/1 162/8/1 163/12/1 164/11/1
f 165/4/1 166/3/1 167/9/1 168/10/1
f 169/3/1 170/6/1 171/11/1 172/9/1
f 173/6/1 174/8/1 175/12/1 176/11/1
f 177/1/1 178/2/1 179/3/1 180/4/1
f 181/2/1 182/5/1 183/6/1 184/3/1
f 185/5/1 186/7/1 187/8/1 188/6/1
f 189/1/1 190/2/1 191/3/1 192/4/1
f 193/2/1 194/5/1 195/6/1 196/3/1
f 197/1/1 198/2/1 199/3/1 200/4/1
f 201/2/1 202/5/1 203/6/1 204/3/1
f 205/5/1 206/7/1 207/8/1 208/6/1
f 209/1/1 210/2/1 211/3/1 212/4/1
f 213/2/1 214/5/1 215/6/1 216/3/1
f 217/5/1 218/7/1 219/8/1 220/6/1
f 221/13/1 222/14/1 223/2/1 224/1/1
f 225/14/1 226/15/1 227/5/1 228/2/1
f 229/15/1 230/16/1 231/7/1 232/5/1
f 233/13/1 234/14/1 235/2/1 236/1/1
f 237/14/1 238/15/1 239/5/1 240/2/1
f 241/13/1 242/14/1 243/2/1 244/1/1
f 245/14/1 246/15/1 247/5/1 248/2/1
f 249/15/1 250/16/1 251/7/1 252/5/1
f 253/13/1 254/14/1 255/2/1 256/1/1
f 257/14/1 258/15/1 259/5/1 260/2/1
f 261/15/1 262/16/1 263/7/1 264/5/1

