# Tiled2Unity generated file. Do not modify by hand.
# Wavefront file for 'Forest_mesh_0015.obj'

# Vertices (Count = 268)
v 0 -1 0
v -1 -1 0
v -1 0 0
v 0 0 0
v -6 -1 0
v -7 -1 0
v -7 0 0
v -6 0 0
v -7 -1 0
v -8 -1 0
v -8 0 0
v -7 0 0
v -8 -1 0
v -9 -1 0
v -9 0 0
v -8 0 0
v -13 -1 0
v -14 -1 0
v -14 0 0
v -13 0 0
v -14 -1 0
v -15 -1 0
v -15 0 0
v -14 0 0
v -15 -1 0
v -16 -1 0
v -16 0 0
v -15 0 0
v 0 -2 0
v -1 -2 0
v -1 -1 0
v 0 -1 0
v -3 -2 0
v -4 -2 0
v -4 -1 0
v -3 -1 0
v -4 -2 0
v -5 -2 0
v -5 -1 0
v -4 -1 0
v -5 -2 0
v -6 -2 0
v -6 -1 0
v -5 -1 0
v -6 -2 0
v -7 -2 0
v -7 -1 0
v -6 -1 0
v -7 -2 0
v -8 -2 0
v -8 -1 0
v -7 -1 0
v -8 -2 0
v -9 -2 0
v -9 -1 0
v -8 -1 0
v -9 -2 0
v -10 -2 0
v -10 -1 0
v -9 -1 0
v -10 -2 0
v -11 -2 0
v -11 -1 0
v -10 -1 0
v -11 -2 0
v -12 -2 0
v -12 -1 0
v -11 -1 0
v -13 -2 0
v -14 -2 0
v -14 -1 0
v -13 -1 0
v -14 -2 0
v -15 -2 0
v -15 -1 0
v -14 -1 0
v -15 -2 0
v -16 -2 0
v -16 -1 0
v -15 -1 0
v 0 -3 0
v -1 -3 0
v -1 -2 0
v 0 -2 0
v -3 -3 0
v -4 -3 0
v -4 -2 0
v -3 -2 0
v -4 -3 0
v -5 -3 0
v -5 -2 0
v -4 -2 0
v -5 -3 0
v -6 -3 0
v -6 -2 0
v -5 -2 0
v -6 -3 0
v -7 -3 0
v -7 -2 0
v -6 -2 0
v -7 -3 0
v -8 -3 0
v -8 -2 0
v -7 -2 0
v -8 -3 0
v -9 -3 0
v -9 -2 0
v -8 -2 0
v -9 -3 0
v -10 -3 0
v -10 -2 0
v -9 -2 0
v -10 -3 0
v -11 -3 0
v -11 -2 0
v -10 -2 0
v -11 -3 0
v -12 -3 0
v -12 -2 0
v -11 -2 0
v -13 -3 0
v -14 -3 0
v -14 -2 0
v -13 -2 0
v -14 -3 0
v -15 -3 0
v -15 -2 0
v -14 -2 0
v -15 -3 0
v -16 -3 0
v -16 -2 0
v -15 -2 0
v -3 -4 0
v -4 -4 0
v -4 -3 0
v -3 -3 0
v -4 -4 0
v -5 -4 0
v -5 -3 0
v -4 -3 0
v -5 -4 0
v -6 -4 0
v -6 -3 0
v -5 -3 0
v -8 -4 0
v -9 -4 0
v -9 -3 0
v -8 -3 0
v -9 -4 0
v -10 -4 0
v -10 -3 0
v -9 -3 0
v -10 -4 0
v -11 -4 0
v -11 -3 0
v -10 -3 0
v -11 -4 0
v -12 -4 0
v -12 -3 0
v -11 -3 0
v 0 -9 0
v -1 -9 0
v -1 -8 0
v 0 -8 0
v -1 -9 0
v -2 -9 0
v -2 -8 0
v -1 -8 0
v -2 -9 0
v -3 -9 0
v -3 -8 0
v -2 -8 0
v -3 -9 0
v -4 -9 0
v -4 -8 0
v -3 -8 0
v -4 -9 0
v -5 -9 0
v -5 -8 0
v -4 -8 0
v -5 -9 0
v -6 -9 0
v -6 -8 0
v -5 -8 0
v -8 -9 0
v -9 -9 0
v -9 -8 0
v -8 -8 0
v -9 -9 0
v -10 -9 0
v -10 -8 0
v -9 -8 0
v -10 -9 0
v -11 -9 0
v -11 -8 0
v -10 -8 0
v 0 -10 0
v -1 -10 0
v -1 -9 0
v 0 -9 0
v -1 -10 0
v -2 -10 0
v -2 -9 0
v -1 -9 0
v -2 -10 0
v -3 -10 0
v -3 -9 0
v -2 -9 0
v -3 -10 0
v -4 -10 0
v -4 -9 0
v -3 -9 0
v -4 -10 0
v -5 -10 0
v -5 -9 0
v -4 -9 0
v -5 -10 0
v -6 -10 0
v -6 -9 0
v -5 -9 0
v -8 -10 0
v -9 -10 0
v -9 -9 0
v -8 -9 0
v -9 -10 0
v -10 -10 0
v -10 -9 0
v -9 -9 0
v -10 -10 0
v -11 -10 0
v -11 -9 0
v -10 -9 0
v 0 -11 0
v -1 -11 0
v -1 -10 0
v 0 -10 0
v -1 -11 0
v -2 -11 0
v -2 -10 0
v -1 -10 0
v -2 -11 0
v -3 -11 0
v -3 -10 0
v -2 -10 0
v -3 -11 0
v -4 -11 0
v -4 -10 0
v -3 -10 0
v -4 -11 0
v -5 -11 0
v -5 -10 0
v -4 -10 0
v -5 -11 0
v -6 -11 0
v -6 -10 0
v -5 -10 0
v -8 -11 0
v -9 -11 0
v -9 -10 0
v -8 -10 0
v -9 -11 0
v -10 -11 0
v -10 -10 0
v -9 -10 0
v -10 -11 0
v -11 -11 0
v -11 -10 0
v -10 -10 0

# Texture cooridinates (Count = 16)
vt 0.5625 0.96875
vt 0.59375 0.96875
vt 0.59375 1
vt 0.5625 1
vt 0.5 0.96875
vt 0.53125 0.96875
vt 0.53125 1
vt 0.5 1
vt 0.5625 0.9375
vt 0.59375 0.9375
vt 0.5 0.9375
vt 0.53125 0.9375
vt 0.5625 0.90625
vt 0.59375 0.90625
vt 0.5 0.90625
vt 0.53125 0.90625

# Normal
vn 0 0 -1

# Mesh description
g Forest_mesh_0015

# Faces
f 1/1/1 2/2/1 3/3/1 4/4/1
f 5/5/1 6/6/1 7/7/1 8/8/1
f 9/6/1 10/1/1 11/4/1 12/7/1
f 13/1/1 14/2/1 15/3/1 16/4/1
f 17/5/1 18/6/1 19/7/1 20/8/1
f 21/6/1 22/1/1 23/4/1 24/7/1
f 25/1/1 26/2/1 27/3/1 28/4/1
f 29/9/1 30/10/1 31/2/1 32/1/1
f 33/5/1 34/6/1 35/7/1 36/8/1
f 37/6/1 38/1/1 39/4/1 40/7/1
f 41/1/1 42/2/1 43/3/1 44/4/1
f 45/11/1 46/12/1 47/6/1 48/5/1
f 49/12/1 50/9/1 51/1/1 52/6/1
f 53/5/1 54/6/1 55/7/1 56/8/1
f 57/6/1 58/1/1 59/4/1 60/7/1
f 61/1/1 62/2/1 63/3/1 64/4/1
f 65/1/1 66/2/1 67/3/1 68/4/1
f 69/11/1 70/12/1 71/6/1 72/5/1
f 73/12/1 74/9/1 75/1/1 76/6/1
f 77/9/1 78/10/1 79/2/1 80/1/1
f 81/13/1 82/14/1 83/10/1 84/9/1
f 85/11/1 86/12/1 87/6/1 88/5/1
f 89/12/1 90/9/1 91/1/1 92/6/1
f 93/9/1 94/10/1 95/2/1 96/1/1
f 97/15/1 98/16/1 99/12/1 100/11/1
f 101/16/1 102/13/1 103/9/1 104/12/1
f 105/11/1 106/12/1 107/6/1 108/5/1
f 109/12/1 110/9/1 111/1/1 112/6/1
f 113/9/1 114/10/1 115/2/1 116/1/1
f 117/9/1 118/10/1 119/2/1 120/1/1
f 121/15/1 122/16/1 123/12/1 124/11/1
f 125/16/1 126/13/1 127/9/1 128/12/1
f 129/13/1 130/14/1 131/10/1 132/9/1
f 133/15/1 134/16/1 135/12/1 136/11/1
f 137/16/1 138/13/1 139/9/1 140/12/1
f 141/13/1 142/14/1 143/10/1 144/9/1
f 145/15/1 146/16/1 147/12/1 148/11/1
f 149/16/1 150/13/1 151/9/1 152/12/1
f 153/13/1 154/14/1 155/10/1 156/9/1
f 157/13/1 158/14/1 159/10/1 160/9/1
f 161/5/1 162/6/1 163/7/1 164/8/1
f 165/6/1 166/1/1 167/4/1 168/7/1
f 169/1/1 170/2/1 171/3/1 172/4/1
f 173/5/1 174/6/1 175/7/1 176/8/1
f 177/6/1 178/1/1 179/4/1 180/7/1
f 181/1/1 182/2/1 183/3/1 184/4/1
f 185/5/1 186/6/1 187/7/1 188/8/1
f 189/6/1 190/1/1 191/4/1 192/7/1
f 193/1/1 194/2/1 195/3/1 196/4/1
f 197/11/1 198/12/1 199/6/1 200/5/1
f 201/12/1 202/9/1 203/1/1 204/6/1
f 205/9/1 206/10/1 207/2/1 208/1/1
f 209/11/1 210/12/1 211/6/1 212/5/1
f 213/12/1 214/9/1 215/1/1 216/6/1
f 217/9/1 218/10/1 219/2/1 220/1/1
f 221/11/1 222/12/1 223/6/1 224/5/1
f 225/12/1 226/9/1 227/1/1 228/6/1
f 229/9/1 230/10/1 231/2/1 232/1/1
f 233/15/1 234/16/1 235/12/1 236/11/1
f 237/16/1 238/13/1 239/9/1 240/12/1
f 241/13/1 242/14/1 243/10/1 244/9/1
f 245/15/1 246/16/1 247/12/1 248/11/1
f 249/16/1 250/13/1 251/9/1 252/12/1
f 253/13/1 254/14/1 255/10/1 256/9/1
f 257/15/1 258/16/1 259/12/1 260/11/1
f 261/16/1 262/13/1 263/9/1 264/12/1
f 265/13/1 266/14/1 267/10/1 268/9/1

